<svg xmlns="http://www.w3.org/2000/svg" xmlns:xlink="http://www.w3.org/1999/xlink" width="456.221" height="534.615" viewBox="0 0 456.221 534.615">
  <defs>
    <linearGradient id="linear-gradient" x1="0.5" y1="1.177" x2="0.5" y2="0.474" gradientUnits="objectBoundingBox">
      <stop offset="0" stop-color="#fbb45c"/>
      <stop offset="1" stop-color="#f9647c"/>
    </linearGradient>
    <linearGradient id="linear-gradient-2" x1="0.5" y1="-0.132" x2="0.5" y2="0.817" gradientUnits="objectBoundingBox">
      <stop offset="0" stop-color="#f9647c"/>
      <stop offset="1" stop-color="#ffd4de"/>
    </linearGradient>
  </defs>
  <g id="Group_33" data-name="Group 33" transform="translate(40.261 -45.431)">
    <g id="Group_31" data-name="Group 31" transform="translate(107.011 177)">
      <path id="Path_12" data-name="Path 12" d="M941.134,779.47l-48.554-17.5-47.242,17.5v-125.1h95.8Z" transform="translate(-812.397 -526.425)" fill="#b2b2b2" opacity="0.85" style="mix-blend-mode: multiply;isolation: isolate"/>
      <path id="Path_13" data-name="Path 13" d="M937.772,735.546l-51.327-18.5-49.939,18.5V603.3H937.772Z" transform="translate(-806.301 -491.173)" fill="url(#linear-gradient)"/>
      <path id="Path_14" data-name="Path 14" d="M955.262,777.636l13.162-4.875L982.972,778V684h-27.71Z" transform="translate(-888.279 -546.884)" fill="url(#linear-gradient-2)"/>
      <g id="Group_30" data-name="Group 30" transform="translate(0 0)">
        <g id="Group_23" data-name="Group 23">
          <circle id="Ellipse_11" data-name="Ellipse 11" cx="78.111" cy="78.111" r="78.111" transform="translate(2.727 18.431)" fill="#b2b2b2" opacity="0.85" style="mix-blend-mode: multiply;isolation: isolate"/>
          <circle id="Ellipse_12" data-name="Ellipse 12" cx="80.838" cy="80.838" r="80.838" transform="translate(0 6.782)" fill="#e2a100"/>
          <circle id="Ellipse_13" data-name="Ellipse 13" cx="80.838" cy="80.838" r="80.838" fill="#ffd536"/>
          <g id="Group_22" data-name="Group 22" transform="translate(1.594 1.594)" opacity="0.38">
            <path id="Path_15" data-name="Path 15" d="M839.4,246.391l-95.282,95.282a80.264,80.264,0,0,0,7.068,20.4L859.8,253.459A80.248,80.248,0,0,0,839.4,246.391Z" transform="translate(-744.121 -246.391)" fill="#ffe479"/>
            <path id="Path_16" data-name="Path 16" d="M1001.011,422.443a80.494,80.494,0,0,0-8.352-35.813l-108.3,108.3a80.5,80.5,0,0,0,35.813,8.352,81.6,81.6,0,0,0,9.407-.548l70.883-70.883A81.667,81.667,0,0,0,1001.011,422.443Z" transform="translate(-840.929 -343.199)" fill="#ffe479"/>
            <path id="Path_17" data-name="Path 17" d="M898.931,288.592,786.322,401.2a81.254,81.254,0,0,0,5.344,6.8L905.731,293.936A81.247,81.247,0,0,0,898.931,288.592Z" transform="translate(-773.253 -275.523)" fill="#ffe479"/>
          </g>
          <path id="Path_18" data-name="Path 18" d="M821.783,246.257a79.95,79.95,0,0,1,79.94,78.875c.005-.36.014-.718.014-1.079a79.954,79.954,0,1,0-159.908,0c0,.361.009.719.014,1.079A79.95,79.95,0,0,1,821.783,246.257Z" transform="translate(-740.945 -243.215)" fill="#f9e593"/>
        </g>
        <g id="Group_25" data-name="Group 25" transform="translate(10.08 10.08)">
          <circle id="Ellipse_14" data-name="Ellipse 14" cx="70.758" cy="70.758" r="70.758" fill="#ffb011"/>
          <path id="Path_19" data-name="Path 19" d="M843.327,275.309l.276,63.265,5.239-63.048-4.689,63.092,10.169-62.443L844.7,338.7l15.037-61.453-14.5,61.582,19.813-60.083L845.76,339l24.465-58.344L846.27,339.214l28.968-56.244-28.476,56.495,33.291-53.8-32.821,54.087,37.41-51.02-36.963,51.345,41.3-47.928L848.1,340.436l44.93-44.54-44.54,44.93,48.286-40.878-47.928,41.3,51.345-36.963-51.02,37.41,54.087-32.821-53.8,33.291,56.495-28.476L849.71,342.655,908.265,318.7l-58.344,24.465,60.254-19.288-60.083,19.812,61.581-14.5-61.453,15.037L912.75,334.6l-62.443,10.169,63.092-4.689-63.048,5.239,63.265.276-63.265.276,63.048,5.239-63.092-4.689,62.443,10.169-62.529-9.624,61.453,15.037-61.581-14.5,60.083,19.812L849.922,348.03,908.265,372.5,849.71,348.54l56.244,28.968L849.46,349.032l53.8,33.291L849.172,349.5l51.02,37.41-51.345-36.963,47.928,41.3-48.286-40.878,44.54,44.93-44.93-44.54,40.878,48.286-41.3-47.928,36.963,51.345-37.41-51.02,32.821,54.087-33.291-53.8,28.476,56.495L846.27,351.981l23.956,58.555L845.76,352.192l19.288,60.254-19.812-60.083,14.5,61.582L844.7,352.491l9.624,62.529-10.169-62.443,4.689,63.092L843.6,352.621l-.276,63.265-.276-63.265-5.239,63.048,4.689-63.092-10.169,62.443,9.624-62.529-15.037,61.453,14.5-61.582-19.812,60.083,19.288-60.254-24.465,58.344,23.956-58.555-28.968,56.244,28.476-56.495-33.291,53.8,32.821-54.087-37.41,51.02,36.963-51.345-41.3,47.928,40.878-48.286-44.93,44.54,44.54-44.93-48.286,40.878,47.928-41.3-51.345,36.963,51.02-37.41L783.4,382.323l53.8-33.291L780.7,377.508l56.244-28.968L778.389,372.5l58.344-24.465-60.254,19.288,60.083-19.812-61.581,14.5,61.453-15.037L773.9,356.593l62.443-10.169-63.092,4.689,63.049-5.239-63.265-.276,63.265-.276-63.049-5.239,63.092,4.689L773.9,334.6l62.529,9.624-61.453-15.037,61.581,14.5-60.083-19.812,60.254,19.288L778.389,318.7l58.555,23.956L780.7,313.687l56.495,28.476-53.8-33.291,54.087,32.821-51.02-37.41,51.345,36.963-47.928-41.3,48.286,40.878-44.54-44.93,44.93,44.54L797.678,292.15l41.3,47.928-36.963-51.345,37.41,51.02L806.6,285.667l33.291,53.8L811.417,282.97l28.968,56.244-23.956-58.555L840.894,339l-19.288-60.254,19.812,60.083-14.5-61.582L841.956,338.7l-9.624-62.529L842.5,338.617l-4.689-63.092,5.239,63.048Z" transform="translate(-772.569 -274.839)" fill="#ffc871"/>
          <g id="Group_24" data-name="Group 24" transform="translate(0.362 0.361)" opacity="0.38">
            <path id="Path_20" data-name="Path 20" d="M850.277,274.96,772.69,352.547a70.292,70.292,0,0,0,5.782,21.684l93.49-93.49A70.294,70.294,0,0,0,850.277,274.96Z" transform="translate(-772.69 -274.96)" fill="#ffe479"/>
            <path id="Path_21" data-name="Path 21" d="M1007.842,439.355a70.513,70.513,0,0,0-5.859-28.226l-93.125,93.124a71,71,0,0,0,50.865,2.16l44.42-44.42A70.672,70.672,0,0,0,1007.842,439.355Z" transform="translate(-866.688 -368.958)" fill="#ffe479"/>
            <path id="Path_22" data-name="Path 22" d="M907.844,312.008l-98.106,98.106a70.986,70.986,0,0,0,5.237,6.907l99.776-99.776A71.007,71.007,0,0,0,907.844,312.008Z" transform="translate(-798.264 -300.534)" fill="#ffe479"/>
          </g>
          <path id="Path_23" data-name="Path 23" d="M842.281,279.342a70.756,70.756,0,0,1,70.7,67.983c.035-.921.059-1.845.059-2.775a70.758,70.758,0,0,0-141.516,0c0,.93.024,1.854.059,2.775A70.755,70.755,0,0,1,842.281,279.342Z" transform="translate(-771.523 -273.793)" fill="#e29813"/>
        </g>
        <g id="Group_29" data-name="Group 29" transform="translate(25.352 20.61)">
          <g id="Group_26" data-name="Group 26">
            <path id="Path_24" data-name="Path 24" d="M877.763,328.6l15.9,32.219a1.607,1.607,0,0,0,1.21.879l35.555,5.167a1.607,1.607,0,0,1,.891,2.741l-25.728,25.079a1.608,1.608,0,0,0-.462,1.423L911.2,431.52a1.607,1.607,0,0,1-2.332,1.694L877.07,416.5a1.607,1.607,0,0,0-1.5,0l-31.8,16.719a1.607,1.607,0,0,1-2.332-1.694l6.073-35.412a1.608,1.608,0,0,0-.462-1.423l-25.728-25.079a1.607,1.607,0,0,1,.891-2.741L857.77,361.7a1.607,1.607,0,0,0,1.21-.879l15.9-32.219A1.607,1.607,0,0,1,877.763,328.6Z" transform="translate(-820.836 -321.539)" fill="#e2a100"/>
            <path id="Path_25" data-name="Path 25" d="M877.763,327.356l15.9,32.219a1.608,1.608,0,0,0,1.21.879l35.555,5.166a1.607,1.607,0,0,1,.891,2.742l-25.728,25.079a1.607,1.607,0,0,0-.462,1.423l6.073,35.412a1.607,1.607,0,0,1-2.332,1.694l-31.8-16.719a1.608,1.608,0,0,0-1.5,0l-31.8,16.719a1.607,1.607,0,0,1-2.332-1.694l6.073-35.412a1.607,1.607,0,0,0-.462-1.423l-25.728-25.079a1.608,1.608,0,0,1,.891-2.742l35.555-5.166a1.608,1.608,0,0,0,1.21-.879l15.9-32.219A1.607,1.607,0,0,1,877.763,327.356Z" transform="translate(-820.836 -320.68)" fill="#e2a100"/>
            <path id="Path_26" data-name="Path 26" d="M877.763,326.112l15.9,32.219a1.607,1.607,0,0,0,1.21.879l35.555,5.167a1.607,1.607,0,0,1,.891,2.741L905.593,392.2a1.607,1.607,0,0,0-.462,1.423l6.073,35.412a1.607,1.607,0,0,1-2.332,1.694l-31.8-16.719a1.607,1.607,0,0,0-1.5,0l-31.8,16.719a1.607,1.607,0,0,1-2.332-1.694l6.073-35.412a1.607,1.607,0,0,0-.462-1.423l-25.728-25.079a1.607,1.607,0,0,1,.891-2.741l35.555-5.167a1.607,1.607,0,0,0,1.21-.879l15.9-32.219A1.607,1.607,0,0,1,877.763,326.112Z" transform="translate(-820.836 -319.821)" fill="#e2a100"/>
            <path id="Path_27" data-name="Path 27" d="M877.763,324.868l15.9,32.219a1.607,1.607,0,0,0,1.21.879l35.555,5.167a1.607,1.607,0,0,1,.891,2.741l-25.728,25.079a1.607,1.607,0,0,0-.462,1.422l6.073,35.412a1.607,1.607,0,0,1-2.332,1.694l-31.8-16.719a1.607,1.607,0,0,0-1.5,0l-31.8,16.719a1.607,1.607,0,0,1-2.332-1.694l6.073-35.412a1.607,1.607,0,0,0-.462-1.422l-25.728-25.079a1.607,1.607,0,0,1,.891-2.741l35.555-5.167a1.607,1.607,0,0,0,1.21-.879l15.9-32.219A1.607,1.607,0,0,1,877.763,324.868Z" transform="translate(-820.836 -318.962)" fill="#e2a100"/>
            <path id="Path_28" data-name="Path 28" d="M877.763,323.623l15.9,32.219a1.608,1.608,0,0,0,1.21.879l35.555,5.166a1.607,1.607,0,0,1,.891,2.742l-25.728,25.079a1.608,1.608,0,0,0-.462,1.423l6.073,35.412a1.607,1.607,0,0,1-2.332,1.694l-31.8-16.719a1.607,1.607,0,0,0-1.5,0l-31.8,16.719a1.607,1.607,0,0,1-2.332-1.694l6.073-35.412a1.607,1.607,0,0,0-.462-1.423l-25.728-25.079a1.607,1.607,0,0,1,.891-2.742l35.555-5.166a1.608,1.608,0,0,0,1.21-.879l15.9-32.219A1.607,1.607,0,0,1,877.763,323.623Z" transform="translate(-820.836 -318.103)" fill="#e2a100"/>
            <path id="Path_29" data-name="Path 29" d="M877.763,322.379l15.9,32.219a1.606,1.606,0,0,0,1.21.879l35.555,5.167a1.607,1.607,0,0,1,.891,2.742l-25.728,25.079a1.607,1.607,0,0,0-.462,1.423L911.2,425.3a1.607,1.607,0,0,1-2.332,1.695l-31.8-16.719a1.607,1.607,0,0,0-1.5,0l-31.8,16.719a1.607,1.607,0,0,1-2.332-1.695l6.073-35.412a1.607,1.607,0,0,0-.462-1.423l-25.728-25.079a1.607,1.607,0,0,1,.891-2.742l35.555-5.167a1.607,1.607,0,0,0,1.21-.879l15.9-32.219A1.607,1.607,0,0,1,877.763,322.379Z" transform="translate(-820.836 -317.244)" fill="#e2a100"/>
            <path id="Path_30" data-name="Path 30" d="M877.763,321.135l15.9,32.219a1.606,1.606,0,0,0,1.21.879L930.43,359.4a1.607,1.607,0,0,1,.891,2.741L905.593,387.22a1.607,1.607,0,0,0-.462,1.422l6.073,35.412a1.607,1.607,0,0,1-2.332,1.694l-31.8-16.719a1.607,1.607,0,0,0-1.5,0l-31.8,16.719a1.607,1.607,0,0,1-2.332-1.694l6.073-35.412a1.607,1.607,0,0,0-.462-1.422l-25.728-25.079a1.607,1.607,0,0,1,.891-2.741l35.555-5.167a1.607,1.607,0,0,0,1.21-.879l15.9-32.219A1.607,1.607,0,0,1,877.763,321.135Z" transform="translate(-820.836 -316.385)" fill="#e2a100"/>
            <path id="Path_31" data-name="Path 31" d="M877.763,319.89l15.9,32.219a1.607,1.607,0,0,0,1.21.879l35.555,5.167a1.607,1.607,0,0,1,.891,2.741l-25.728,25.079a1.608,1.608,0,0,0-.462,1.423L911.2,422.81a1.607,1.607,0,0,1-2.332,1.694l-31.8-16.719a1.607,1.607,0,0,0-1.5,0l-31.8,16.719a1.607,1.607,0,0,1-2.332-1.694l6.073-35.412a1.608,1.608,0,0,0-.462-1.423L821.323,360.9a1.607,1.607,0,0,1,.891-2.741l35.555-5.167a1.607,1.607,0,0,0,1.21-.879l15.9-32.219A1.607,1.607,0,0,1,877.763,319.89Z" transform="translate(-820.836 -315.526)" fill="#e2a100"/>
            <path id="Path_32" data-name="Path 32" d="M877.763,318.646l15.9,32.219a1.608,1.608,0,0,0,1.21.88l35.555,5.166a1.607,1.607,0,0,1,.891,2.742l-25.728,25.079a1.607,1.607,0,0,0-.462,1.423l6.073,35.412a1.607,1.607,0,0,1-2.332,1.694l-31.8-16.719a1.607,1.607,0,0,0-1.5,0l-31.8,16.719a1.607,1.607,0,0,1-2.332-1.694l6.073-35.412a1.607,1.607,0,0,0-.462-1.423l-25.728-25.079a1.608,1.608,0,0,1,.891-2.742l35.555-5.166a1.608,1.608,0,0,0,1.21-.88l15.9-32.219A1.607,1.607,0,0,1,877.763,318.646Z" transform="translate(-820.836 -314.667)" fill="#e2a100"/>
            <path id="Path_33" data-name="Path 33" d="M877.763,317.4l15.9,32.219a1.606,1.606,0,0,0,1.21.879l35.555,5.167a1.607,1.607,0,0,1,.891,2.741l-25.728,25.079a1.607,1.607,0,0,0-.462,1.422l6.073,35.412a1.607,1.607,0,0,1-2.332,1.694L877.07,405.3a1.607,1.607,0,0,0-1.5,0l-31.8,16.719a1.607,1.607,0,0,1-2.332-1.694l6.073-35.412a1.607,1.607,0,0,0-.462-1.422l-25.728-25.079a1.607,1.607,0,0,1,.891-2.741L857.77,350.5a1.606,1.606,0,0,0,1.21-.879l15.9-32.219A1.607,1.607,0,0,1,877.763,317.4Z" transform="translate(-820.836 -313.809)" fill="#e2a100"/>
            <path id="Path_34" data-name="Path 34" d="M877.763,316.158l15.9,32.219a1.607,1.607,0,0,0,1.21.879l35.555,5.167a1.607,1.607,0,0,1,.891,2.741l-25.728,25.079a1.608,1.608,0,0,0-.462,1.423l6.073,35.412a1.607,1.607,0,0,1-2.332,1.694l-31.8-16.719a1.607,1.607,0,0,0-1.5,0l-31.8,16.719a1.607,1.607,0,0,1-2.332-1.694l6.073-35.412a1.608,1.608,0,0,0-.462-1.423l-25.728-25.079a1.607,1.607,0,0,1,.891-2.741l35.555-5.167a1.607,1.607,0,0,0,1.21-.879l15.9-32.219A1.607,1.607,0,0,1,877.763,316.158Z" transform="translate(-820.836 -312.949)" fill="#e2a100"/>
            <path id="Path_35" data-name="Path 35" d="M877.763,314.913l15.9,32.219a1.608,1.608,0,0,0,1.21.879l35.555,5.166a1.607,1.607,0,0,1,.891,2.742L905.593,381a1.607,1.607,0,0,0-.462,1.423l6.073,35.412a1.607,1.607,0,0,1-2.332,1.694l-31.8-16.719a1.609,1.609,0,0,0-1.5,0l-31.8,16.719a1.607,1.607,0,0,1-2.332-1.694l6.073-35.412a1.607,1.607,0,0,0-.462-1.423l-25.728-25.079a1.607,1.607,0,0,1,.891-2.742l35.555-5.166a1.608,1.608,0,0,0,1.21-.879l15.9-32.219A1.607,1.607,0,0,1,877.763,314.913Z" transform="translate(-820.836 -312.09)" fill="#e2a100"/>
            <path id="Path_36" data-name="Path 36" d="M877.763,313.669l15.9,32.219a1.606,1.606,0,0,0,1.21.879l35.555,5.167a1.607,1.607,0,0,1,.891,2.741l-25.728,25.079a1.607,1.607,0,0,0-.462,1.423l6.073,35.412a1.607,1.607,0,0,1-2.332,1.694l-31.8-16.719a1.607,1.607,0,0,0-1.5,0l-31.8,16.719a1.607,1.607,0,0,1-2.332-1.694l6.073-35.412a1.607,1.607,0,0,0-.462-1.423l-25.728-25.079a1.607,1.607,0,0,1,.891-2.741l35.555-5.167a1.607,1.607,0,0,0,1.21-.879l15.9-32.219A1.607,1.607,0,0,1,877.763,313.669Z" transform="translate(-820.836 -311.232)" fill="#e2a100"/>
            <path id="Path_37" data-name="Path 37" d="M877.763,312.425l15.9,32.219a1.607,1.607,0,0,0,1.21.879l35.555,5.167a1.607,1.607,0,0,1,.891,2.741L905.593,378.51a1.607,1.607,0,0,0-.462,1.422l6.073,35.412a1.607,1.607,0,0,1-2.332,1.694l-31.8-16.719a1.607,1.607,0,0,0-1.5,0l-31.8,16.719a1.607,1.607,0,0,1-2.332-1.694l6.073-35.412a1.607,1.607,0,0,0-.462-1.422l-25.728-25.079a1.607,1.607,0,0,1,.891-2.741l35.555-5.167a1.607,1.607,0,0,0,1.21-.879l15.9-32.219A1.607,1.607,0,0,1,877.763,312.425Z" transform="translate(-820.836 -310.372)" fill="#e2a100"/>
            <path id="Path_38" data-name="Path 38" d="M877.763,311.18l15.9,32.219a1.608,1.608,0,0,0,1.21.879l35.555,5.166a1.607,1.607,0,0,1,.891,2.742l-25.728,25.079a1.608,1.608,0,0,0-.462,1.423L911.2,414.1a1.607,1.607,0,0,1-2.332,1.694l-31.8-16.719a1.608,1.608,0,0,0-1.5,0l-31.8,16.719a1.607,1.607,0,0,1-2.332-1.694l6.073-35.412a1.607,1.607,0,0,0-.462-1.423l-25.728-25.079a1.607,1.607,0,0,1,.891-2.742l35.555-5.166a1.608,1.608,0,0,0,1.21-.879l15.9-32.219A1.607,1.607,0,0,1,877.763,311.18Z" transform="translate(-820.836 -309.513)" fill="#e2a100"/>
            <path id="Path_39" data-name="Path 39" d="M877.763,309.936l15.9,32.219a1.606,1.606,0,0,0,1.21.879L930.43,348.2a1.607,1.607,0,0,1,.891,2.741l-25.728,25.079a1.607,1.607,0,0,0-.462,1.423l6.073,35.412a1.607,1.607,0,0,1-2.332,1.694l-31.8-16.719a1.607,1.607,0,0,0-1.5,0l-31.8,16.719a1.607,1.607,0,0,1-2.332-1.694l6.073-35.412a1.607,1.607,0,0,0-.462-1.423l-25.728-25.079a1.607,1.607,0,0,1,.891-2.741l35.555-5.167a1.607,1.607,0,0,0,1.21-.879l15.9-32.219A1.607,1.607,0,0,1,877.763,309.936Z" transform="translate(-820.836 -308.655)" fill="#e2a100"/>
            <path id="Path_40" data-name="Path 40" d="M877.763,308.692l15.9,32.219a1.606,1.606,0,0,0,1.21.879l35.555,5.167a1.607,1.607,0,0,1,.891,2.741l-25.728,25.079a1.607,1.607,0,0,0-.462,1.422l6.073,35.412a1.607,1.607,0,0,1-2.332,1.694l-31.8-16.719a1.607,1.607,0,0,0-1.5,0l-31.8,16.719a1.607,1.607,0,0,1-2.332-1.694l6.073-35.412a1.607,1.607,0,0,0-.462-1.422L821.323,349.7a1.607,1.607,0,0,1,.891-2.741l35.555-5.167a1.607,1.607,0,0,0,1.21-.879l15.9-32.219A1.607,1.607,0,0,1,877.763,308.692Z" transform="translate(-820.836 -307.796)" fill="#e2a100"/>
          </g>
          <path id="Path_41" data-name="Path 41" d="M877.763,308.692l15.9,32.219a1.606,1.606,0,0,0,1.21.879l35.555,5.167a1.607,1.607,0,0,1,.891,2.741l-25.728,25.079a1.607,1.607,0,0,0-.462,1.422l6.073,35.412a1.607,1.607,0,0,1-2.332,1.694l-31.8-16.719a1.607,1.607,0,0,0-1.5,0l-31.8,16.719a1.607,1.607,0,0,1-2.332-1.694l6.073-35.412a1.607,1.607,0,0,0-.462-1.422L821.323,349.7a1.607,1.607,0,0,1,.891-2.741l35.555-5.167a1.607,1.607,0,0,0,1.21-.879l15.9-32.219A1.607,1.607,0,0,1,877.763,308.692Z" transform="translate(-820.836 -307.796)" fill="#ffd536"/>
          <g id="Group_27" data-name="Group 27" transform="translate(5.395)" opacity="0.38">
            <path id="Path_42" data-name="Path 42" d="M852.167,368.04l44.8-44.8-7.179-14.546a1.607,1.607,0,0,0-2.883,0l-15.9,32.219a1.607,1.607,0,0,1-1.21.879l-22.05,3.2-9.488,9.488Z" transform="translate(-838.258 -307.796)" fill="#ffe479"/>
            <path id="Path_43" data-name="Path 43" d="M1044.35,563.973a1.607,1.607,0,0,0,2.332-1.694l-6.073-35.412a1.6,1.6,0,0,1,.071-.809l-23.586,23.586Z" transform="translate(-961.71 -458.463)" fill="#ffe479"/>
            <path id="Path_44" data-name="Path 44" d="M898.549,449.717l49.7-49.7a1.6,1.6,0,0,1-.936-.811l-3.435-6.96L901.063,435.06Z" transform="translate(-879.877 -366.094)" fill="#ffe479"/>
          </g>
          <g id="Group_28" data-name="Group 28" transform="translate(0.925 0.925)">
            <path id="Path_45" data-name="Path 45" d="M824.178,351.241a.7.7,0,0,1,.231-.075L859.964,346a2.531,2.531,0,0,0,1.906-1.385l15.9-32.219a.682.682,0,0,1,1.224,0l15.9,32.219A2.531,2.531,0,0,0,896.8,346l35.555,5.167a.694.694,0,0,1,.231.075l.147-.144a.683.683,0,0,0-.378-1.164L896.8,344.766a2.531,2.531,0,0,1-1.906-1.385L879,311.163a.682.682,0,0,0-1.224,0l-15.9,32.219a2.531,2.531,0,0,1-1.906,1.385l-35.556,5.167a.683.683,0,0,0-.378,1.164Z" transform="translate(-823.823 -310.782)" fill="#ffe479"/>
          </g>
        </g>
        <path id="Path_46" data-name="Path 46" d="M839.506,576.689a72,72,0,0,1-71.989-70.919c-.005.361-.014.722-.014,1.084a72,72,0,1,0,144.006,0c0-.362-.008-.723-.014-1.084A72,72,0,0,1,839.506,576.689Z" transform="translate(-758.668 -423.848)" fill="#ffefab"/>
      </g>
    </g>
    <path id="Path_47" data-name="Path 47" d="M1300.755,496.444l1.211,2.455a.243.243,0,0,0,.183.133l2.709.394a.243.243,0,0,1,.135.414l-1.96,1.911a.242.242,0,0,0-.07.215l.463,2.7a.243.243,0,0,1-.352.256l-2.423-1.274a.243.243,0,0,0-.226,0L1298,504.921a.243.243,0,0,1-.353-.256l.463-2.7a.243.243,0,0,0-.07-.215l-1.96-1.911a.243.243,0,0,1,.135-.414l2.709-.394a.243.243,0,0,0,.183-.133l1.211-2.455A.243.243,0,0,1,1300.755,496.444Z" transform="translate(-1016.486 -240.317)" fill="#f9647c"/>
    <g id="Group_32" data-name="Group 32" transform="translate(52.203 182.85)">
      <path id="Path_48" data-name="Path 48" d="M719.779,260.408l2.448,4.959a.492.492,0,0,0,.37.269l5.473.8a.491.491,0,0,1,.272.837l-3.961,3.861a.492.492,0,0,0-.141.434l.935,5.451a.491.491,0,0,1-.712.517l-4.9-2.574a.491.491,0,0,0-.457,0l-4.9,2.574a.491.491,0,0,1-.713-.517l.935-5.451a.491.491,0,0,0-.141-.434l-3.96-3.861a.491.491,0,0,1,.272-.837l5.474-.8a.491.491,0,0,0,.37-.269l2.448-4.959A.491.491,0,0,1,719.779,260.408Z" transform="translate(-664.294 -260.134)" fill="#f9647c"/>
      <path id="Path_49" data-name="Path 49" d="M664.417,487.7l1.212,2.455a.243.243,0,0,0,.183.133l2.709.394a.243.243,0,0,1,.135.415l-1.96,1.911a.244.244,0,0,0-.07.215l.463,2.7a.243.243,0,0,1-.353.256l-2.423-1.274a.241.241,0,0,0-.226,0l-2.423,1.274a.243.243,0,0,1-.353-.256l.463-2.7a.244.244,0,0,0-.07-.215l-1.96-1.911a.243.243,0,0,1,.135-.415l2.709-.394a.242.242,0,0,0,.183-.133l1.212-2.455A.243.243,0,0,1,664.417,487.7Z" transform="translate(-629.421 -417.132)" fill="#fe7a66"/>
      <path id="Path_50" data-name="Path 50" d="M1326.322,716.436l2,4.048a.4.4,0,0,0,.3.219l4.467.649a.4.4,0,0,1,.222.683l-3.232,3.151a.4.4,0,0,0-.115.355l.763,4.449a.4.4,0,0,1-.581.422l-3.995-2.1a.4.4,0,0,0-.373,0l-4,2.1a.4.4,0,0,1-.581-.422l.763-4.449a.4.4,0,0,0-.115-.355l-3.232-3.151a.4.4,0,0,1,.222-.683l4.467-.649a.4.4,0,0,0,.3-.219l2-4.048A.4.4,0,0,1,1326.322,716.436Z" transform="translate(-1084.212 -574.968)" fill="#46aab4"/>
      <circle id="Ellipse_15" data-name="Ellipse 15" cx="9.601" cy="9.601" r="9.601" transform="translate(30.04 127.554)" fill="#008fb4"/>
      <circle id="Ellipse_16" data-name="Ellipse 16" cx="4.8" cy="4.8" r="4.8" transform="translate(0 49.511)" fill="#008fb4"/>
      <circle id="Ellipse_17" data-name="Ellipse 17" cx="4.336" cy="4.336" r="4.336" transform="translate(218.334 135.606)" fill="#f9647c"/>
      <circle id="Ellipse_18" data-name="Ellipse 18" cx="4.336" cy="4.336" r="4.336" transform="translate(263.55 46.414)" fill="#008fb4"/>
      <circle id="Ellipse_19" data-name="Ellipse 19" cx="7.742" cy="7.742" r="7.742" transform="translate(210.902 1.818)" fill="#ededed"/>
      <circle id="Ellipse_20" data-name="Ellipse 20" cx="8.052" cy="8.052" r="8.052" transform="translate(160.112 148.613)" fill="#ededed"/>
      <circle id="Ellipse_21" data-name="Ellipse 21" cx="5.265" cy="5.265" r="5.265" transform="translate(76.494 49.821)" fill="#ededed"/>
      <circle id="Ellipse_22" data-name="Ellipse 22" cx="2.168" cy="2.168" r="2.168" transform="translate(15.794 106.804)" fill="#008fb4"/>
      <circle id="Ellipse_23" data-name="Ellipse 23" cx="2.168" cy="2.168" r="2.168" transform="translate(40.57 41.769)" fill="#008fb4"/>
      <circle id="Ellipse_24" data-name="Ellipse 24" cx="2.168" cy="2.168" r="2.168" transform="translate(22.415 8.705)" fill="#ededed"/>
      <circle id="Ellipse_25" data-name="Ellipse 25" cx="2.168" cy="2.168" r="2.168" transform="translate(205.018 164.717)" fill="#008fb4"/>
      <circle id="Ellipse_26" data-name="Ellipse 26" cx="1.646" cy="1.646" r="1.646" transform="translate(250.852 99.681)" fill="#008fb4"/>
      <circle id="Ellipse_27" data-name="Ellipse 27" cx="1.646" cy="1.646" r="1.646" transform="translate(223.811 42.698)" fill="#008fb4"/>
      <circle id="Ellipse_28" data-name="Ellipse 28" cx="1.646" cy="1.646" r="1.646" transform="translate(252.655 4.581)" fill="#f9647c"/>
    </g>
  </g>
</svg>
